<svg xmlns="http://www.w3.org/2000/svg" version="1.1" xmlns:xlink="http://www.w3.org/1999/xlink" xmlns:svgjs="http://svgjs.com/svgjs" width="512" height="512" x="0" y="0" viewBox="0 0 512 512.00101" style="enable-background:new 0 0 512 512" xml:space="preserve" class=""><g><path xmlns="http://www.w3.org/2000/svg" d="m462 40h-166c-27.570312 0-50.003906 22.429688-50.003906 50v92c0 27.570312 22.433594 50.003906 50.003906 50.003906h88v29.113282c0 4.042968 2.433594 7.6875 6.164062 9.238281 1.238282.511719 2.542969.761719 3.832032.761719 2.597656 0 5.148437-1.007813 7.0625-2.914063l36.335937-36.199219h24.605469c27.570312 0 50-22.433594 50-50.003906v-92c0-27.570312-22.429688-50-50-50zm30 142c0 16.542969-13.457031 30.003906-30 30.003906h-28.738281c-2.644531 0-5.183594 1.046875-7.058594 2.914063l-22.203125 22.121093v-15.035156c0-5.523437-4.476562-10-10-10h-98c-16.542969 0-30-13.460937-30-30.003906v-92c0-16.542969 13.457031-30 30-30h166c16.542969 0 30 13.457031 30 30zm0 0" fill="#b20600" data-original="#000000" class=""></path><path xmlns="http://www.w3.org/2000/svg" d="m451.007812 317.300781c-28.378906-28.382812-74.558593-28.382812-102.9375 0l-26.707031 26.703125c-10.351562 10.355469-26.628906 11.082032-37.867187 1.707032-42.394532-35.378907-81.828125-74.8125-117.207032-117.207032-9.378906-11.238281-8.644531-27.519531 1.707032-37.867187l26.707031-26.707031c28.378906-28.378907 28.378906-74.558594 0-102.9375l-39.675781-39.675782c-13.746094-13.746094-32.027344-21.316406-51.46875-21.316406s-37.71875 7.570312-51.46875 21.316406c-29.648438 29.652344-47.925782 68.992188-51.460938 110.777344-3.53125 41.78125 7.875 83.632812 32.125 117.84375 63.117188 89.042969 140.265625 166.191406 229.308594 229.308594 30.132812 21.359375 66.1875 32.757812 102.90625 32.753906 4.96875 0 9.957031-.207031 14.9375-.628906 41.785156-3.535156 81.125-21.808594 110.773438-51.460938 13.75-13.746094 21.320312-32.027344 21.320312-51.46875s-7.570312-37.71875-21.320312-51.46875zm-177.378906 145.628907c-87.195312-61.808594-162.75-137.359376-224.558594-224.558594-44.644531-62.984375-37.425781-148.320313 17.164063-202.910156 9.96875-9.96875 23.226563-15.460938 37.324219-15.460938 14.101562 0 27.355468 5.492188 37.328125 15.460938l39.671875 39.675781c9.972656 9.96875 15.460937 23.226562 15.460937 37.324219 0 14.097656-5.488281 27.355468-15.460937 37.324218l-1.648438 1.652344-65.175781-65.175781c-3.902344-3.902344-10.234375-3.902344-14.140625 0-3.90625 3.90625-3.90625 10.238281 0 14.144531l65.171875 65.171875-10.914063 10.914063c-17.714843 17.71875-18.972656 45.589843-2.917968 64.828124 36.144531 43.3125 76.433594 83.601563 119.746094 119.746094 19.238281 16.050782 47.109374 14.800782 64.828124-2.917968l10.914063-10.914063 113.214844 113.214844c-54.214844 40.820312-129.199219 42.746093-186.007813 2.480469zm202.910156-17.164063c-.5625.5625-1.132812 1.113281-1.699218 1.664063-.191406-.226563-.386719-.449219-.601563-.664063l-113.675781-113.671875 1.652344-1.652344c9.96875-9.96875 23.226562-15.460937 37.324218-15.460937 14.097657 0 27.355469 5.492187 37.324219 15.460937l39.675781 39.675782c9.972657 9.96875 15.460938 23.226562 15.460938 37.324218 0 14.101563-5.488281 27.355469-15.460938 37.324219zm0 0" fill="#b20600" data-original="#000000" class=""></path><path xmlns="http://www.w3.org/2000/svg" d="m79.304688 55.980469c-2.628907 0-5.207032 1.0625-7.066407 2.929687-1.859375 1.859375-2.933593 4.441406-2.933593 7.070313 0 2.628906 1.070312 5.210937 2.933593 7.070312 1.859375 1.859375 4.4375 2.929688 7.066407 2.929688 2.632812 0 5.210937-1.070313 7.070312-2.929688 1.863281-1.859375 2.929688-4.441406 2.929688-7.070312 0-2.628907-1.066407-5.210938-2.929688-7.070313-1.859375-1.871094-4.4375-2.929687-7.070312-2.929687zm0 0" fill="#b20600" data-original="#000000" class=""></path><path xmlns="http://www.w3.org/2000/svg" d="m218.308594 367.914062c-20.484375-18.226562-40.367188-37.617187-59.089844-57.632812-3.773438-4.035156-10.101562-4.246094-14.132812-.472656-4.035157 3.769531-4.246094 10.101562-.472657 14.132812 19.140625 20.464844 39.460938 40.285156 60.398438 58.914063 1.90625 1.695312 4.28125 2.53125 6.644531 2.53125 2.757812 0 5.5-1.132813 7.476562-3.355469 3.671876-4.125 3.300782-10.445312-.824218-14.117188zm0 0" fill="#b20600" data-original="#000000" class=""></path><path xmlns="http://www.w3.org/2000/svg" d="m133.210938 281.246094c-3.609376-4.179688-9.894532-4.613282-14.078126-1-4.179687 3.609375-4.613281 9.953125-1.003906 14.136718l.121094.140626c1.972656 2.273437 4.730469 3.433593 7.515625 3.433593 2.320313 0 4.660156-.808593 6.5625-2.453125 4.175781-3.617187 4.597656-9.96875.984375-14.140625zm0 0" fill="#b20600" data-original="#000000" class=""></path><path xmlns="http://www.w3.org/2000/svg" d="m427.5 126c-2.628906 0-5.210938 1.070312-7.070312 2.929688-1.859376 1.863281-2.929688 4.441406-2.929688 7.070312 0 2.632812 1.070312 5.210938 2.929688 7.070312 1.859374 1.859376 4.441406 2.929688 7.070312 2.929688s5.210938-1.070312 7.070312-2.929688c1.859376-1.859374 2.929688-4.4375 2.929688-7.070312 0-2.628906-1.070312-5.207031-2.929688-7.070312-1.859374-1.859376-4.441406-2.929688-7.070312-2.929688zm0 0" fill="#b20600" data-original="#000000" class=""></path><path xmlns="http://www.w3.org/2000/svg" d="m379.058594 126c-2.628906 0-5.210938 1.070312-7.070313 2.929688-1.859375 1.863281-2.929687 4.441406-2.929687 7.070312 0 2.632812 1.070312 5.210938 2.929687 7.070312 1.871094 1.859376 4.441407 2.929688 7.070313 2.929688s5.210937-1.070312 7.070312-2.929688c1.871094-1.859374 2.929688-4.4375 2.929688-7.070312 0-2.628906-1.058594-5.207031-2.929688-7.070312-1.859375-1.859376-4.429687-2.929688-7.070312-2.929688zm0 0" fill="#b20600" data-original="#000000" class=""></path><path xmlns="http://www.w3.org/2000/svg" d="m330.628906 126c-2.640625 0-5.210937 1.070312-7.070312 2.929688-1.871094 1.863281-2.929688 4.441406-2.929688 7.070312 0 2.632812 1.058594 5.210938 2.929688 7.070312 1.859375 1.859376 4.441406 2.929688 7.070312 2.929688s5.210938-1.070312 7.070313-2.929688c1.859375-1.859374 2.929687-4.4375 2.929687-7.070312 0-2.628906-1.070312-5.207031-2.929687-7.070312-1.859375-1.859376-4.441407-2.929688-7.070313-2.929688zm0 0" fill="#b20600" data-original="#000000" class=""></path></g></svg>