<svg xmlns="http://www.w3.org/2000/svg" version="1.1" xmlns:xlink="http://www.w3.org/1999/xlink" xmlns:svgjs="http://svgjs.com/svgjs" width="512" height="512" x="0" y="0" viewBox="0 0 512 512" style="enable-background:new 0 0 512 512" xml:space="preserve" class=""><g><g xmlns="http://www.w3.org/2000/svg"><path d="m228.114 254.741v-52.42c0-7.927-6.45-14.377-14.377-14.377h-85.392c-7.927 0-14.377 6.45-14.377 14.377v52.42c0 7.927 6.45 14.377 14.377 14.377h85.392c7.928-.001 14.377-6.45 14.377-14.377zm-14.872-51.924v18.278h-84.401v-18.278zm-84.401 51.428v-18.278h84.401v18.278z" fill="#b20600" data-original="#000000" class=""></path><path d="m422.691 287.483c4.107 0 7.436-3.329 7.436-7.436v-120.336c0-4.107-3.329-7.436-7.436-7.436h-333.382c-4.107 0-7.436 3.329-7.436 7.436v181.749c0 4.107 3.329 7.436 7.436 7.436h333.382c4.107 0 7.436-3.329 7.436-7.436v-28.195c0-4.107-3.329-7.436-7.436-7.436s-7.436 3.329-7.436 7.436v20.758h-318.51v-166.876h318.509v112.9c.001 4.106 3.33 7.436 7.437 7.436z" fill="#b20600" data-original="#000000" class=""></path><path d="m444.504 94.909c8.474 0 15.368-6.894 15.368-15.368v-64.173c0-8.474-6.894-15.368-15.368-15.368h-157.826c-8.474 0-15.368 6.894-15.368 15.368v64.173c0 8.474 6.894 15.368 15.368 15.368h36.28v27.621h-157.608c-4.107 0-7.436 3.329-7.436 7.436s3.329 7.436 7.436 7.436h267.256c6.834 0 12.394 5.56 12.394 12.394v201.579c0 6.834-5.56 12.394-12.394 12.394h-353.212c-6.834 0-12.394-5.56-12.394-12.394v-201.579c0-6.834 5.56-12.394 12.394-12.394h51.278c4.107 0 7.436-3.329 7.436-7.436s-3.329-7.436-7.436-7.436h-51.278c-15.035 0-27.266 12.231-27.266 27.266v201.579c0 15.035 12.231 27.266 27.266 27.266h109.653v26.664h-17.971c-9.292 0-16.852 7.56-16.852 16.852v16.177h-84.745c-9.567 0-17.351 7.784-17.351 17.351v38.965c0 9.567 7.784 17.351 17.351 17.351h223.184c4.107 0 7.436-3.329 7.436-7.436s-3.329-7.436-7.436-7.436h-223.184c-1.367 0-2.479-1.112-2.479-2.479v-38.965c0-1.367 1.112-2.479 2.479-2.479h373.041c1.367 0 2.479 1.112 2.479 2.479v38.965c0 1.367-1.112 2.479-2.479 2.479h-114.255c-4.107 0-7.436 3.329-7.436 7.436s3.329 7.436 7.436 7.436h114.256c9.567 0 17.351-7.784 17.351-17.351v-38.965c0-9.567-7.784-17.351-17.351-17.351h-84.745v-16.177c0-9.292-7.559-16.852-16.851-16.852h-17.972v-26.664h109.653c15.035 0 27.266-12.231 27.266-27.266v-201.579c0-15.035-12.232-27.266-27.266-27.266h-24.382v-27.621zm-101.6 327.248v16.177h-173.808v-16.177c0-1.091.888-1.979 1.979-1.979h169.849c1.092-.001 1.98.887 1.98 1.979zm-34.823-16.852h-104.162v-26.664h104.162zm-21.898-325.764v-64.173c0-.274.222-.496.496-.496h157.825c.274 0 .496.222.496.496v64.173c0 .274-.222.496-.496.496h-157.826c-.273-.001-.495-.223-.495-.496zm107.169 42.989h-55.521v-27.621h55.521z" fill="#b20600" data-original="#000000" class=""></path><path d="m130.673 467.73c-4.107 0-7.436 3.329-7.436 7.436s3.329 7.436 7.436 7.436h131.621c4.107 0 7.436-3.329 7.436-7.436s-3.329-7.436-7.436-7.436z" fill="#b20600" data-original="#000000" class=""></path><circle cx="359.907" cy="475.166" r="9.567" fill="#b20600" data-original="#000000" class=""></circle><circle cx="397.202" cy="475.166" r="9.567" fill="#b20600" data-original="#000000" class=""></circle><path d="m362.237 313.619c4.07-.122 7.207-3.673 7.207-7.745v-5.843c13.276-3.177 21.793-14.431 23.659-25.53 2.409-14.326-5.077-26.779-19.069-31.725-1.51-.534-3.05-1.089-4.59-1.663v-26.535c3.338 1.106 5.296 2.758 5.446 2.889l-.073-.066.256.173c7.252 4.909 15.583-4.505 9.828-11.106-.352-.325-6.072-5.473-15.457-7.203v-4.564c0-4.072-3.138-7.622-7.207-7.745-4.211-.126-7.665 3.25-7.665 7.433v5.401c-.62.154-1.246.323-1.88.514-9.268 2.792-16.191 10.709-18.067 20.662-1.718 9.118 1.231 17.931 7.696 23.002 3.159 2.478 7.031 4.748 12.251 7.119v34.693c-3.918-.463-6.772-1.655-11.228-4.547-3.397-2.204-8.057-1.54-10.391 1.769-2.439 3.458-1.51 8.218 2.002 10.515 7.666 5.015 13.028 6.695 19.618 7.202v5.466c-.001 4.184 3.452 7.56 7.664 7.434zm16.2-41.584c-.796 4.733-3.851 9.724-8.993 12.278v-27.376c10.051 3.769 9.431 12.489 8.993 15.098zm-26.938-39.768c-2.048-1.606-2.935-4.961-2.259-8.545.537-2.848 2.207-6.187 5.332-8.1v18.737c-1.125-.682-2.162-1.378-3.073-2.092z" fill="#b20600" data-original="#000000" class=""></path><path d="m322.943 195.38c0-4.107-3.329-7.436-7.436-7.436h-65.827c-4.107 0-7.436 3.329-7.436 7.436s3.329 7.436 7.436 7.436h65.827c4.107.001 7.436-3.329 7.436-7.436z" fill="#b20600" data-original="#000000" class=""></path><path d="m120.403 285.8c-4.107 0-7.436 3.329-7.436 7.436s3.329 7.436 7.436 7.436h65.827c4.107 0 7.436-3.329 7.436-7.436s-3.329-7.436-7.436-7.436z" fill="#b20600" data-original="#000000" class=""></path><path d="m249.679 218.397c-4.107 0-7.436 3.329-7.436 7.436s3.329 7.436 7.436 7.436h29.067c4.107 0 7.436-3.329 7.436-7.436s-3.329-7.436-7.436-7.436z" fill="#b20600" data-original="#000000" class=""></path><path d="m416.941 47.517h-17.385c-4.107 0-7.436 3.329-7.436 7.436s3.329 7.436 7.436 7.436h17.385c4.107 0 7.436-3.329 7.436-7.436s-3.329-7.436-7.436-7.436z" fill="#b20600" data-original="#000000" class=""></path><path d="m368.584 47.517h-17.385c-4.107 0-7.436 3.329-7.436 7.436s3.329 7.436 7.436 7.436h17.385c4.107 0 7.436-3.329 7.436-7.436s-3.329-7.436-7.436-7.436z" fill="#b20600" data-original="#000000" class=""></path></g></g></svg>